:SAMPLES-PER-SECOND 30
:FULLY-SPECIFIED
:DEGREES
222
root  -5.898289042 40.28444365 8.816933069 18.68200684 -55.95999908 -8.58001709
lowerback  9.65719986 7.264659882 -7.948219776
upperback  4.858240128 8.473939896 -8.007320404
thorax  -0.1679819971 4.055009842 -4.822329998
lowerneck  5.27794981 4.881909847 -5.191629887
upperneck  7.101329803 5.377950191 20.76729965
head  0.3652209938 2.632110119 7.105100155
lclavicle  0 -9.442270133e-015 7.951389973e-016
lhumerus  -42.00299835 -13.37349987 88.50299835
lradius  2.051588444e-031 -2.873991804e-031 125.5210037
lwrist  0 1.765562519e-031 44.56740189
lhand  -1.496451383e-031 -27.76390076 20.11240005
lfingers  90 7.125020027 -90
lthumb  89.89689403 5.08795885 91.16245106
rclavicle  0 -9.442270133e-015 7.951389973e-016
rhumerus  -9.128549576 -1.123409986 -80.71839905
rradius  6.335677094e-032 3.473821526e-031 79.6638031
rwrist  7.062250077e-031 3.531125038e-031 -56.44139862
rhand  -7.920061211e-032 -33.2840004 9.303460121
rfingers  -90 -7.125020027 -90
rthumb  -92.93752616 -24.25625642 -97.11982154
rfemur  -5.98871994 10.70860004 16.11100006
rtibia  -0 0 43.33860016
rfoot  -4.417323254e-032 -2.253750086 -5.829699993
rtoes  5.373923086 19.29304026 -105.8922705
lfemur  -46.09560013 -10.03779984 5.296800137
ltibia  -0 0 41.8370018
lfoot  -0 6.014120102 7.34360981
ltoes  -4.250644065 -19.5611806 -102.515957
223
root  -5.86517777 40.41755556 8.676111417 20.45098877 -57.29199982 -10.63897705
lowerback  9.577480316 7.28783989 -7.26278019
upperback  4.928629875 8.580659866 -7.995069981
thorax  0.04610389844 4.118639946 -5.166279793
lowerneck  5.065000057 4.910970211 -4.952000141
upperneck  6.893449783 5.476359844 20.16539955
head  0.363718003 2.684439898 6.867760181
lclavicle  0 -9.442270133e-015 7.951389973e-016
lhumerus  -42.90330124 -12.46889973 88.03669739
lradius  2.082268596e-031 -2.851841779e-031 126.1350021
lwrist  -7.062250077e-031 8.827812596e-031 44.84030151
lhand  -1.496451383e-031 -27.76390076 20.11240005
lfingers  90 7.125020027 -90
lthumb  89.89689403 5.08795885 91.16245106
rclavicle  0 -9.442270133e-015 7.951389973e-016
rhumerus  -10.95359993 -0.2127420008 -81.54190063
rradius  6.01680797e-032 3.479486206e-031 80.18930054
rwrist  1.059337512e-030 5.296687558e-031 -55.92610168
rhand  -7.920061211e-032 -33.2840004 9.303460121
rfingers  -90 -7.125020027 -90
rthumb  -92.93752616 -24.25625642 -97.11982154
rfemur  -6.178090096 9.937540054 16.67560005
rtibia  -0 0 42.77050018
rfoot  -0 -4.432849884 -9.435059547
rtoes  5.373923086 19.29304026 -105.8922705
lfemur  -45.53829956 -9.535909653 6.230899811
ltibia  -0 0 42.56930161
lfoot  -0 5.692520142 7.790649891
ltoes  -4.250644065 -19.5611806 -102.515957
224
root  -5.791622072 40.45555535 8.469466713 23.63800049 -58.38999939 -14.35797119
lowerback  9.926070213 7.411819935 -5.962329865
upperback  4.859139919 8.826660156 -7.655829906
thorax  -0.07595709711 4.270870209 -5.575530052
lowerneck  5.056650162 4.851950169 -4.925799847
upperneck  6.474040031 5.481040001 19.57589912
head  0.2705669999 2.667639971 6.667920113
lclavicle  0 -9.442270133e-015 7.951389973e-016
lhumerus  -43.69129944 -11.7585001 87.82510376
lradius  2.108905153e-031 -2.832201104e-031 126.6719971
lwrist  -7.062250077e-031 1.765562519e-031 45.06980133
lhand  -1.496451383e-031 -27.76390076 20.11240005
lfingers  90 7.125020027 -90
lthumb  89.89689403 5.08795885 91.16245106
rclavicle  0 -9.442270133e-015 7.951389973e-016
rhumerus  -12.85610008 0.4133180082 -82.03230286
rradius  5.620175198e-032 3.486112497e-031 80.84179688
rwrist  3.531125038e-031 5.296687558e-031 -55.53609848
rhand  -7.920061211e-032 -33.2840004 9.303460121
rfingers  -90 -7.125020027 -90
rthumb  -92.93752616 -24.25625642 -97.11982154
rfemur  -6.641320229 9.522600174 18.31459999
rtibia  -0 0 42.42990112
rfoot  -0 -6.312180042 -12.60219955
rtoes  5.373923086 19.29304026 -105.8922705
lfemur  -45.20949936 -8.323470116 7.874949932
ltibia  -0 0 43.86930084
lfoot  -0 5.480840206 7.154230118
ltoes  -4.250644065 -19.5611806 -102.515957
225
root  -5.70642216 40.45533308 8.267066986 26.14599609 -59.30500031 -16.95800781
lowerback  9.942219734 7.273590088 -5.395299911
upperback  4.774260044 8.700389862 -7.382470131
thorax  -0.1460009962 4.21860981 -5.584280014
lowerneck  5.052480221 4.985439777 -5.007430077
upperneck  6.161859989 5.723080158 19.00779915
head  0.1732629985 2.770829916 6.487659931
lclavicle  0 -9.442270133e-015 7.951389973e-016
lhumerus  -44.48320007 -10.59350014 87.55889893
lradius  2.134914923e-031 -2.812646851e-031 127.1999969
lwrist  -7.062250077e-031 5.296687558e-031 45.18479919
lhand  -1.496451383e-031 -27.76390076 20.11240005
lfingers  90 7.125020027 -90
lthumb  89.89689403 5.08795885 91.16245106
rclavicle  0 -9.442270133e-015 7.951389973e-016
rhumerus  -14.53050041 1.341320038 -82.55380249
rradius  5.26090072e-032 3.491714947e-031 81.43180084
rwrist  7.062250077e-031 7.062250077e-031 -55.26480103
rhand  -7.920061211e-032 -33.2840004 9.303460121
rfingers  -90 -7.125020027 -90
rthumb  -92.93752616 -24.25625642 -97.11982154
rfemur  -7.344810009 8.904809952 19.26790047
rtibia  -0 0 42.2643013
rfoot  -0 -8.203310013 -14.63000011
rtoes  5.373923086 19.29304026 -105.8922705
lfemur  -45.41550064 -7.053520203 8.667559624
ltibia  -0 0 45.68050003
lfoot  4.432942819e-032 5.311789989 5.88684988
ltoes  -4.250644065 -19.5611806 -102.515957
226
root  -5.622022358 40.44733423 8.084155255 27.86602783 -60.17700195 -18.40997314
lowerback  9.652569771 6.916830063 -5.432690144
upperback  4.669020176 8.258749962 -7.209030151
thorax  -0.1597670019 3.995970011 -5.30561018
lowerneck  4.912670135 5.298140049 -4.983880043
upperneck  6.109610081 6.172589779 18.3477993
head  0.1576769948 2.995949984 6.261789799
lclavicle  0 -9.442270133e-015 7.951389973e-016
lhumerus  -45.41320038 -8.970820427 87.25050354
lradius  2.165955392e-031 -2.788813597e-031 127.8349991
lwrist  -7.062250077e-031 1.765562519e-031 45.43439865
lhand  -1.496451383e-031 -27.76390076 20.11240005
lfingers  90 7.125020027 -90
lthumb  89.89689403 5.08795885 91.16245106
rclavicle  0 -9.442270133e-015 7.951389973e-016
rhumerus  -16.13920021 2.642990112 -83.03679657
rradius  4.896858906e-032 3.497006115e-031 82.02870178
rwrist  7.062250077e-031 1.765562519e-031 -55.15850067
rhand  -7.920061211e-032 -33.2840004 9.303460121
rfingers  -90 -7.125020027 -90
rthumb  -92.93752616 -24.25625642 -97.11982154
rfemur  -8.216589928 8.103349686 19.48940086
rtibia  -0 0 42.32730103
rfoot  -0 -10.34720039 -15.74790001
rtoes  5.373923086 19.29304026 -105.8922705
lfemur  -45.95959854 -5.684599876 8.632820129
ltibia  -0 0 47.85609818
lfoot  4.430926414e-032 5.023550034 4.106289864
ltoes  -4.250644065 -19.5611806 -102.515957
227
root  -5.570622316 40.4324449 8.00211148 29.0710144 -61.53299713 -20.17498779
lowerback  9.812190056 6.826459885 -5.197929859
upperback  4.796929836 8.150380135 -7.035270214
thorax  -0.1132740006 3.940399885 -5.249340057
lowerneck  4.756000042 5.534379959 -5.063660145
upperneck  6.079020023 6.509789944 17.7758007
head  0.1589960009 3.166239977 6.087530136
lclavicle  0 -9.442270133e-015 7.951389973e-016
lhumerus  -46.32789993 -7.512040138 87.12539673
lradius  2.19619893e-031 -2.765059547e-031 128.4589996
lwrist  -7.062250077e-031 1.765562519e-031 45.51070023
lhand  -1.496451383e-031 -27.76390076 20.11240005
lfingers  90 7.125020027 -90
lthumb  89.89689403 5.08795885 91.16245106
rclavicle  0 -9.442270133e-015 7.951389973e-016
rhumerus  -17.71579933 3.66099 -83.23989868
rradius  4.644479321e-032 3.500447422e-031 82.44200134
rwrist  7.062250077e-031 1.765562519e-031 -55.42710114
rhand  -7.920061211e-032 -33.2840004 9.303460121
rfingers  -90 -7.125020027 -90
rthumb  -92.93752616 -24.25625642 -97.11982154
rfemur  -8.191720009 7.608650208 19.45610046
rtibia  -0 0 42.45299911
rfoot  -0 -11.63630009 -14.90170002
rtoes  5.373923086 19.29304026 -105.8922705
lfemur  -45.40019989 -4.730480194 8.235139847
ltibia  -0 0 50.31710052
lfoot  4.42620243e-032 4.271759987 2.560760021
ltoes  -4.250644065 -19.5611806 -102.515957
